Coordinates
version=1
nRows=24
nColumns=22
inDegrees=yes

Units are S.I. units (second, meters, Newtons, ...)
If the header above contains a line with 'inDegrees', this indicates whether rotational values are in degrees (yes) or radians (no).

endheader
time	pelvis_tilt	pelvis_list	pelvis_rotation	pelvis_tx	pelvis_ty	pelvis_tz	hip_flexion_r	hip_adduction_r	hip_rotation_r	knee_angle_r	ankle_angle_r	subtalar_angle_r	hip_flexion_l	hip_adduction_l	hip_rotation_l	knee_angle_l	ankle_angle_l	subtalar_angle_l	lumbar_extension	lumbar_bending	lumbar_rotation
      0.01000000	      0.19691738	      2.26137220	    180.04502533	      0.15491085	      0.94045960	      1.12243107	      4.00789538	      1.60148070	    -12.69370736	    -16.59460967	     13.45700088	     -1.09757747	      7.50964245	     -4.07504896	     -4.41898834	    -22.75600553	     14.59061841	     -1.59506157	     -7.12330441	     -2.29375239	     -5.96148760
      0.02000000	      0.22217223	      2.25880330	    180.01711040	      0.15484191	      0.94044166	      1.12250696	      4.01986408	      1.59143771	    -12.65240963	    -16.57285184	     13.48046463	     -1.09012189	      7.50426681	     -4.06558969	     -4.44230536	    -22.71452436	     14.58652908	     -1.58652913	     -7.12183417	     -2.29037781	     -5.98784294
      0.03000000	      0.25873503	      2.23385046	    179.94482706	      0.15477805	      0.94040430	      1.12252793	      4.05606819	      1.56134857	    -12.52887758	    -16.56659066	     13.51422934	     -1.03606568	      7.49777994	     -4.03532641	     -4.50635383	    -22.66485538	     14.59517344	     -1.56210268	     -7.11849401	     -2.32497399	     -5.93265838
      0.04000000	      0.30667070	      2.22373465	    179.87942048	      0.15467373	      0.94034798	      1.12258333	      4.10425517	      1.54250756	    -12.43246808	    -16.56615577	     13.52714237	     -0.95467645	      7.50495747	     -4.02211610	     -4.57974687	    -22.61966401	     14.60432909	     -1.54504824	     -7.10424571	     -2.33574309	     -5.90781321
      0.05000000	      0.35357925	      2.21734974	    179.84577546	      0.15452615	      0.94029255	      1.12269396	      4.13139492	      1.52913828	    -12.36289331	    -16.53633559	     13.53655793	     -0.92501535	      7.51419841	     -4.00621882	     -4.60917609	    -22.57541809	     14.62859577	     -1.54078933	     -7.09596729	     -2.34093047	     -5.93276783
      0.06000000	      0.42749766	      2.20581082	    179.77883670	      0.15437205	      0.94018247	      1.12280603	      4.20094060	      1.51046760	    -12.22048673	    -16.52796673	     13.55448830	     -0.84785822	      7.55728563	     -3.98516980	     -4.66764820	    -22.55329233	     14.65765058	     -1.53962120	     -7.05845209	     -2.34682347	     -5.88779492
      0.07000000	      0.51385825	      2.20851911	    179.73515833	      0.15417367	      0.94004954	      1.12295458	      4.28211921	      1.50398353	    -12.12908756	    -16.52586825	     13.56444577	     -0.77473186	      7.61956870	     -3.98069897	     -4.72544272	    -22.53815401	     14.68463648	     -1.54801242	     -7.00944414	     -2.33435498	     -5.89136095
      0.08000000	      0.56536784	      2.20930651	    179.71852438	      0.15389633	      0.93997341	      1.12316003	      4.30023777	      1.49562579	    -12.07327929	    -16.48911544	     13.57645456	     -0.76297530	      7.63566913	     -3.96589789	     -4.74285885	    -22.50854823	     14.71095534	     -1.54924108	     -7.00200834	     -2.32296952	     -5.93046235
      0.09000000	      0.65257331	      2.22017379	    179.67962817	      0.15360307	      0.93982394	      1.12335766	      4.36487728	      1.50209276	    -11.96119232	    -16.46640326	     13.59489524	     -0.73324441	      7.70210070	     -3.96390452	     -4.77664922	    -22.51284911	     14.76310952	     -1.56649403	     -6.95562089	     -2.29793300	     -5.91352063
      0.10000000	      0.71018240	      2.22716273	    179.66786660	      0.15320381	      0.93973217	      1.12360720	      4.37876613	      1.49909610	    -11.92446156	    -16.42706365	     13.60601422	     -0.72835602	      7.71744807	     -3.95478741	     -4.80389691	    -22.48230681	     14.79034475	     -1.57237174	     -6.94315183	     -2.27711073	     -5.94872427
      0.11000000	      0.78547264	      2.24575886	    179.64316968	      0.15276082	      0.93959761	      1.12387670	      4.40517569	      1.51301271	    -11.83620877	    -16.37862537	     13.61993460	     -0.72688854	      7.76014014	     -3.95596727	     -4.82776609	    -22.48098502	     14.85356285	     -1.59684210	     -6.91124043	     -2.23577918	     -5.94768826
      0.12000000	      0.84379477	      2.25510248	    179.63117765	      0.15220560	      0.93950393	      1.12419063	      4.40220141	      1.50922132	    -11.81753836	    -16.32539658	     13.62856144	     -0.72955087	      7.75915268	     -3.94479898	     -4.86024809	    -22.43974463	     14.88026682	     -1.60474822	     -6.89545390	     -2.20427187	     -5.97739972
      0.13000000	      0.90183398	      2.27346812	    179.60904370	      0.15158908	      0.93940654	      1.12451227	      4.38008106	      1.52315851	    -11.74175273	    -16.24230206	     13.63493699	     -0.74538360	      7.75701172	     -3.94111767	     -4.88536643	    -22.41119512	     14.94600024	     -1.63207008	     -6.88057861	     -2.15738341	     -5.98985226
      0.14000000	      0.96013192	      2.28233910	    179.58985359	      0.15090701	      0.93931801	      1.12486586	      4.36197381	      1.51730386	    -11.72423165	    -16.17533320	     13.64118084	     -0.75265471	      7.73939821	     -3.92681816	     -4.92538959	    -22.35713364	     14.97522482	     -1.64250417	     -6.86755511	     -2.12019584	     -6.02067187
      0.15000000	      0.98833568	      2.30122052	    179.54020480	      0.15015928	      0.93927938	      1.12518467	      4.29462749	      1.53277154	    -11.62682392	    -16.07961294	     13.63274718	     -0.79267778	      7.67559595	     -3.92537347	     -4.98802867	    -22.29969428	     15.04574609	     -1.69787869	     -6.88981194	     -2.06991161	     -6.01918206
      0.16000000	      1.03809107	      2.29635714	    179.49702769	      0.14939673	      0.93920524	      1.12554172	      4.26025703	      1.51428700	    -11.56288231	    -16.00467381	     13.64183347	     -0.80493849	      7.63959593	     -3.89342301	     -5.03344536	    -22.24740512	     15.08975388	     -1.71804968	     -6.89334206	     -2.04610138	     -6.04760225
      0.17000000	      1.08415227	      2.29201550	    179.42570029	      0.14860714	      0.93913298	      1.12586943	      4.23491935	      1.49550300	    -11.47667829	    -15.95303782	     13.65006514	     -0.81809418	      7.59128656	     -3.86553898	     -5.10837122	    -22.19189628	     15.13996600	     -1.74489050	     -6.90555112	     -2.02292737	     -6.06706022
      0.18000000	      1.13560758	      2.28117342	    179.34757222	      0.14780820	      0.93904237	      1.12621531	      4.23189731	      1.46514995	    -11.38515692	    -15.93251877	     13.66317312	     -0.82753444	      7.55305889	     -3.82960722	     -5.18795740	    -22.14633360	     15.18770358	     -1.77144198	     -6.91841946	     -2.00392377	     -6.09906773
      0.19000000	      1.19436015	      2.26470124	    179.25894915	      0.14700107	      0.93892610	      1.12656802	      4.25733458	      1.42452962	    -11.28552567	    -15.94995408	     13.68579371	     -0.83481362	      7.52699907	     -3.78702238	     -5.26990532	    -22.11255309	     15.23667441	     -1.80172434	     -6.92931386	     -1.99049746	     -6.14214374
      0.20000000	      1.26293757	      2.23720244	    179.16809036	      0.14619234	      0.93877683	      1.12694921	      4.31555770	      1.36678857	    -11.17550296	    -16.00821017	     13.72125745	     -0.84073774	      7.51984437	     -3.73066310	     -5.35268810	    -22.09322702	     15.29289600	     -1.83563250	     -6.93720073	     -1.98678861	     -6.20185126
      0.21000000	      1.35422007	      2.20468845	    179.06654780	      0.14536904	      0.93857213	      1.12734225	      4.43212167	      1.29750329	    -11.06070654	    -16.13036062	     13.78700181	     -0.85161828	      7.53619251	     -3.66761211	     -5.44051321	    -22.07505120	     15.33788097	     -1.89575790	     -6.92385678	     -1.98449191	     -6.26076381
      0.22000000	      1.44422717	      2.16185136	    178.97040615	      0.14451782	      0.93834514	      1.12776389	      4.56751641	      1.21299320	    -10.94334731	    -16.29381938	     13.85855257	     -0.86655212	      7.55932845	     -3.58953325	     -5.51241527	    -22.07404881	     15.39093853	     -1.95849479	     -6.91844440	     -1.99092773	     -6.34796596
      0.23000000	      1.53373025	      2.10821064	    178.87063947	      0.14364189	      0.93809479	      1.12820023	      4.72840630	      1.11390140	    -10.81045865	    -16.50558431	     13.94572335	     -0.89063823	      7.58496550	     -3.49704756	     -5.58331277	    -22.08236224	     15.43926411	     -2.04223671	     -6.92178402	     -2.00584310	     -6.43616072
      0.24000000	      1.57760606	      2.04493468	    178.77137358	      0.14267979	      0.93788356	      1.12865551	      4.85515009	      0.99875570	    -10.68646470	    -16.75521941	     14.02638419	     -0.90135311	      7.54754624	     -3.38916740	     -5.64737746	    -22.07799997	     15.53794570	     -2.07336384	     -6.98054913	     -2.02881865	     -6.52607100
